<svg width="44" height="44" viewBox="0 0 44 44" fill="none" xmlns="http://www.w3.org/2000/svg">
<circle cx="21.6573" cy="21.6573" r="21.6573" fill="#2F0434"/>
<path d="M26.6534 14.9092H16.738C15.7279 14.9092 14.909 15.7234 14.909 16.7279V26.587C14.909 27.5914 15.7279 28.4057 16.738 28.4057H21.6283L21.6366 23.5827H20.3764C20.2127 23.5827 20.0798 23.4511 20.0791 23.2882L20.0731 21.7336C20.0725 21.5699 20.2058 21.4368 20.3704 21.4368H21.6283V19.9347C21.6283 18.1914 22.699 17.2422 24.263 17.2422H25.5464C25.7106 17.2422 25.8437 17.3746 25.8437 17.5379V18.8487C25.8437 19.012 25.7107 19.1443 25.5465 19.1444L24.759 19.1448C23.9084 19.1448 23.7437 19.5466 23.7437 20.1364V21.4369H25.6127C25.7907 21.4369 25.9289 21.5915 25.9079 21.7673L25.7226 23.322C25.7049 23.4707 25.578 23.5828 25.4273 23.5828H23.7521L23.7437 28.4057H26.6535C27.6636 28.4057 28.4825 27.5915 28.4825 26.5871V16.7279C28.4825 15.7234 27.6636 14.9092 26.6534 14.9092Z" fill="#DA04F2"/>
</svg>
