<svg width="44" height="44" viewBox="0 0 44 44" fill="none" xmlns="http://www.w3.org/2000/svg">
<circle cx="21.6573" cy="21.6573" r="21.6573" fill="#2F0434"/>
<path d="M29.5546 16.4792C29.1921 16.6391 28.8157 16.7652 28.4295 16.8565C28.855 16.4544 29.175 15.9515 29.3555 15.3902C29.407 15.2299 29.232 15.0913 29.0864 15.1772C28.5492 15.494 27.9705 15.7317 27.3664 15.8838C27.3313 15.8926 27.2952 15.8971 27.2589 15.8971C27.1488 15.8971 27.0418 15.8564 26.9577 15.7827C26.315 15.2194 25.4883 14.9092 24.63 14.9092C24.2586 14.9092 23.8837 14.9667 23.5155 15.0803C22.3748 15.4321 21.4947 16.3677 21.2185 17.522C21.1149 17.955 21.0869 18.3884 21.1351 18.8101C21.1406 18.8585 21.1176 18.8924 21.1034 18.9082C21.0785 18.936 21.0431 18.952 21.0064 18.952C21.0023 18.952 20.9981 18.9518 20.9939 18.9514C18.497 18.7207 16.2453 17.5246 14.6538 15.5833C14.5726 15.4843 14.417 15.4964 14.3523 15.6068C14.0406 16.1384 13.8759 16.7465 13.8759 17.3653C13.8759 18.3136 14.2591 19.2073 14.9246 19.8588C14.6448 19.7928 14.3739 19.6889 14.1222 19.55C14.0005 19.4827 13.8507 19.5691 13.849 19.7076C13.8316 21.1164 14.6611 22.3699 15.9037 22.9344C15.8787 22.935 15.8536 22.9353 15.8286 22.9353C15.6316 22.9353 15.4322 22.9164 15.2359 22.8791C15.0988 22.853 14.9836 22.9824 15.0262 23.1145C15.4295 24.3666 16.5137 25.2895 17.8111 25.4991C16.7343 26.2178 15.4804 26.597 14.1753 26.597L13.7684 26.5967C13.643 26.5967 13.537 26.678 13.5051 26.7987C13.4736 26.9176 13.5316 27.0431 13.6385 27.1049C15.1091 27.9559 16.7866 28.4057 18.4903 28.4057C19.9816 28.4057 21.3766 28.1114 22.6366 27.5311C23.7916 26.9991 24.8123 26.2386 25.6703 25.2707C26.4696 24.369 27.0946 23.3282 27.5279 22.1771C27.941 21.0798 28.1593 19.909 28.1593 18.7912V18.738C28.1593 18.5585 28.2409 18.3896 28.3833 18.2747C28.9238 17.8383 29.3944 17.3247 29.7821 16.7481C29.8845 16.5958 29.7231 16.405 29.5546 16.4792Z" fill="#DA04F2"/>
</svg>
