<svg width="44" height="44" viewBox="0 0 44 44" fill="none" xmlns="http://www.w3.org/2000/svg">
<circle cx="21.6573" cy="21.6573" r="21.6573" fill="#2F0434"/>
<path d="M27.2539 14.9092H16.0605C13.8644 14.9092 12.0841 16.6827 12.0841 18.8704V24.4445C12.0841 26.6322 13.8644 28.4057 16.0605 28.4057H27.2539C29.4501 28.4057 31.2304 26.6322 31.2304 24.4445V18.8704C31.2304 16.6827 29.4501 14.9092 27.2539 14.9092ZM24.5647 21.9287L19.3292 24.4161C19.1897 24.4824 19.0285 24.3811 19.0285 24.2271V19.0967C19.0285 18.9406 19.1939 18.8394 19.3337 18.91L24.5692 21.5529C24.7249 21.6315 24.7222 21.8539 24.5647 21.9287Z" fill="#DA04F2"/>
</svg>
