<svg width="44" height="44" viewBox="0 0 44 44" fill="none" xmlns="http://www.w3.org/2000/svg">
<circle cx="21.6573" cy="21.6573" r="21.6573" fill="#2F0434"/>
<path d="M27.1103 14.9092H16.1225C15.4523 14.9092 14.909 15.4558 14.909 16.1301V27.1848C14.909 27.8591 15.4523 28.4057 16.1225 28.4057H27.1102C27.7804 28.4057 28.3237 27.8591 28.3237 27.1848V16.1301C28.3237 15.4558 27.7804 14.9092 27.1103 14.9092ZM19.0601 26.563C19.0601 26.7592 18.902 26.9183 18.707 26.9183H17.2037C17.0087 26.9183 16.8506 26.7592 16.8506 26.563V20.2231C16.8506 20.0269 17.0087 19.8678 17.2037 19.8678H18.707C18.902 19.8678 19.0601 20.0269 19.0601 20.2231V26.563ZM17.9553 19.2702C17.1666 19.2702 16.5273 18.6269 16.5273 17.8334C16.5273 17.0399 17.1666 16.3966 17.9553 16.3966C18.744 16.3966 19.3834 17.0399 19.3834 17.8334C19.3834 18.6269 18.7441 19.2702 17.9553 19.2702ZM26.9159 26.5916C26.9159 26.772 26.7705 26.9183 26.5912 26.9183H24.9781C24.7988 26.9183 24.6534 26.772 24.6534 26.5916V23.6178C24.6534 23.1742 24.7828 21.6739 23.5011 21.6739C22.507 21.6739 22.3054 22.7008 22.2649 23.1617V26.5916C22.2649 26.772 22.1195 26.9183 21.9402 26.9183H20.3801C20.2008 26.9183 20.0554 26.772 20.0554 26.5916V20.1945C20.0554 20.0141 20.2008 19.8678 20.3801 19.8678H21.9402C22.1195 19.8678 22.2649 20.0141 22.2649 20.1945V20.7476C22.6335 20.191 23.1813 19.7614 24.3477 19.7614C26.9307 19.7614 26.9159 22.1893 26.9159 23.5232V26.5916Z" fill="#DA04F2"/>
</svg>
