<svg width="44" height="44" viewBox="0 0 44 44" fill="none" xmlns="http://www.w3.org/2000/svg">
<circle cx="21.6573" cy="21.6573" r="21.6573" fill="#2F0434"/>
<path d="M24.3848 14.9092H18.9297C16.7126 14.9092 14.909 16.7129 14.909 18.9299V24.385C14.909 26.6021 16.7126 28.4057 18.9297 28.4057H24.3848C26.6018 28.4057 28.4055 26.6021 28.4055 24.385V18.9299C28.4055 16.7129 26.6018 14.9092 24.3848 14.9092ZM27.0478 24.385C27.0478 25.8557 25.8555 27.048 24.3848 27.048H18.9297C17.459 27.048 16.2667 25.8557 16.2667 24.385V18.9299C16.2667 17.4592 17.459 16.2669 18.9297 16.2669H24.3848C25.8555 16.2669 27.0478 17.4592 27.0478 18.9299V24.385Z" fill="#DA04F2"/>
<path d="M21.6572 18.1665C19.7325 18.1665 18.1665 19.7324 18.1665 21.6572C18.1665 23.5819 19.7325 25.1479 21.6572 25.1479C23.582 25.1479 25.1479 23.5819 25.1479 21.6572C25.1479 19.7324 23.582 18.1665 21.6572 18.1665ZM21.6572 23.7901C20.4792 23.7901 19.5243 22.8352 19.5243 21.6572C19.5243 20.4792 20.4792 19.5243 21.6572 19.5243C22.8352 19.5243 23.7902 20.4792 23.7902 21.6572C23.7902 22.8352 22.8352 23.7901 21.6572 23.7901Z" fill="#DA04F2"/>
<path d="M25.1547 19.0293C25.6166 19.0293 25.9911 18.6548 25.9911 18.1929C25.9911 17.7309 25.6166 17.3564 25.1547 17.3564C24.6927 17.3564 24.3182 17.7309 24.3182 18.1929C24.3182 18.6548 24.6927 19.0293 25.1547 19.0293Z" fill="#DA04F2"/>
</svg>
