<svg width="31" height="30" viewBox="0 0 31 30" fill="none" xmlns="http://www.w3.org/2000/svg">
<path d="M13.6315 1.71757C14.2378 -0.108902 16.8214 -0.108907 17.4278 1.71756L19.6707 8.47388C19.9423 9.29175 20.7071 9.84374 21.5689 9.84374H28.7343C30.6822 9.84374 31.4808 12.3449 29.8933 13.4737L24.1709 17.5428C23.4548 18.052 23.1549 18.969 23.4318 19.8029L25.6349 26.4392C26.2441 28.2743 24.1536 29.8198 22.5778 28.6993L16.6886 24.5116C15.9947 24.0182 15.0645 24.0182 14.3706 24.5116L8.48146 28.6993C6.90567 29.8198 4.81509 28.2743 5.42431 26.4392L7.62746 19.8029C7.90431 18.969 7.60444 18.052 6.88835 17.5428L1.16591 13.4737C-0.421515 12.3449 0.377082 9.84374 2.32493 9.84374H9.49036C10.3521 9.84374 11.117 9.29175 11.3885 8.47389L13.6315 1.71757Z" fill="#FF7A00"/>
</svg>
