<svg width="31" height="30" viewBox="0 0 31 30" fill="none" xmlns="http://www.w3.org/2000/svg">
<path d="M13.8371 1.71757C14.4434 -0.108902 17.027 -0.108907 17.6333 1.71756L19.8763 8.47388C20.1479 9.29175 20.9127 9.84374 21.7745 9.84374H28.9399C30.8878 9.84374 31.6863 12.3449 30.0989 13.4737L24.3765 17.5428C23.6604 18.052 23.3605 18.969 23.6374 19.8029L25.8405 26.4392C26.4497 28.2743 24.3592 29.8198 22.7834 28.6993L16.8942 24.5116C16.2003 24.0182 15.2701 24.0182 14.5762 24.5116L8.68706 28.6993C7.11127 29.8198 5.02069 28.2743 5.6299 26.4392L7.83306 19.8029C8.10991 18.969 7.81004 18.052 7.09394 17.5428L1.37151 13.4737C-0.215919 12.3449 0.582679 9.84374 2.53053 9.84374H9.69596C10.5577 9.84374 11.3226 9.29175 11.5941 8.47389L13.8371 1.71757Z" fill="#FF7A00"/>
</svg>
