<svg width="31" height="30" viewBox="0 0 31 30" fill="none" xmlns="http://www.w3.org/2000/svg">
<path d="M13.5722 1.71757C14.1786 -0.108902 16.7622 -0.108907 17.3685 1.71756L19.6115 8.47388C19.883 9.29175 20.6479 9.84374 21.5096 9.84374H28.6751C30.6229 9.84374 31.4215 12.3449 29.8341 13.4737L24.1117 17.5428C23.3956 18.052 23.0957 18.969 23.3725 19.8029L25.5757 26.4392C26.1849 28.2743 24.0943 29.8198 22.5185 28.6993L16.6294 24.5116C15.9355 24.0182 15.0053 24.0182 14.3114 24.5116L8.42222 28.6993C6.84644 29.8198 4.75586 28.2743 5.36507 26.4392L7.56823 19.8029C7.84508 18.969 7.54521 18.052 6.82911 17.5428L1.10668 13.4737C-0.48075 12.3449 0.317848 9.84374 2.2657 9.84374H9.43113C10.2929 9.84374 11.0577 9.29175 11.3293 8.47389L13.5722 1.71757Z" fill="#FF7A00"/>
</svg>
