<svg width="32" height="30" viewBox="0 0 32 30" fill="none" xmlns="http://www.w3.org/2000/svg">
<path d="M14.1018 1.71757C14.7082 -0.108902 17.2918 -0.108907 17.8981 1.71756L20.1411 8.47388C20.4126 9.29175 21.1775 9.84374 22.0392 9.84374H29.2047C31.1525 9.84374 31.9511 12.3449 30.3637 13.4737L24.6413 17.5428C23.9252 18.052 23.6253 18.969 23.9021 19.8029L26.1053 26.4392C26.7145 28.2743 24.6239 29.8198 23.0481 28.6993L17.159 24.5116C16.4651 24.0182 15.5349 24.0182 14.841 24.5116L8.95183 28.6993C7.37604 29.8198 5.28546 28.2743 5.89467 26.4392L8.09783 19.8029C8.37468 18.969 8.07481 18.052 7.35871 17.5428L1.63628 13.4737C0.048852 12.3449 0.84745 9.84374 2.7953 9.84374H9.96073C10.8225 9.84374 11.5873 9.29175 11.8589 8.47389L14.1018 1.71757Z" fill="#FF7A00"/>
</svg>
