<svg width="31" height="30" viewBox="0 0 31 30" fill="none" xmlns="http://www.w3.org/2000/svg">
<path d="M13.3667 1.71757C13.973 -0.108902 16.5566 -0.108907 17.163 1.71756L19.4059 8.47388C19.6775 9.29175 20.4423 9.84374 21.3041 9.84374H28.4695C30.4174 9.84374 31.216 12.3449 29.6285 13.4737L23.9061 17.5428C23.19 18.052 22.8901 18.969 23.167 19.8029L25.3701 26.4392C25.9793 28.2743 23.8888 29.8198 22.313 28.6993L16.4238 24.5116C15.7299 24.0182 14.7997 24.0182 14.1058 24.5116L8.21666 28.6993C6.64087 29.8198 4.55029 28.2743 5.1595 26.4392L7.36266 19.8029C7.63951 18.969 7.33964 18.052 6.62354 17.5428L0.901112 13.4737C-0.686316 12.3449 0.112281 9.84374 2.06013 9.84374H9.22556C10.0873 9.84374 10.8522 9.29175 11.1237 8.47389L13.3667 1.71757Z" fill="#FF7A00"/>
</svg>
